<svg xmlns="http://www.w3.org/2000/svg" xmlns:xlink="http://www.w3.org/1999/xlink" version="1.1" baseProfile="full" width="100" height="100" viewBox="0 0 100.00 100.00" enable-background="new 0 0 100.00 100.00" xml:space="preserve">
	<path fill="#000000" fill-opacity="1" stroke-width="0.2" stroke-linejoin="round" d="M 68.75,34.375L 85.9374,34.375L 68.75,17.1876L 68.75,34.375 Z M 87.5,40.625L 68.75,40.625L 62.5,40.625L 62.5,15.625L 31.25,15.6251L 31.25,32.8125L 25,26.5625L 25,9.37503L 70.3125,9.37503L 93.75,32.8125L 93.75,90.625L 25,90.625L 25,60.9375L 31.25,67.1875L 31.25,84.375L 87.5,84.375L 87.5,40.625 Z M 23.4375,31.25L 53.125,60.9375L 42.1875,71.875L 12.5,42.1875L 23.4375,31.25 Z M 10.1563,39.8438L 3.90629,34.8302C 1.90199,32.8259 2.68323,28.5669 4.68753,26.5626L 7.81255,23.4376C 9.81682,21.4333 13.6207,20.652 15.625,22.6563L 21.0937,28.9064L 10.1563,39.8438 Z M 57.8384,78.125L 44.5312,74.2188L 55.4687,63.2813L 59.1215,76.8419L 57.8384,78.125 Z "/>
</svg>