<svg xmlns="http://www.w3.org/2000/svg" xmlns:xlink="http://www.w3.org/1999/xlink" version="1.1" x="0px" y="0px" width="100px" height="100px" viewBox="0 0 100 100" enable-background="new 0 0 100 100" xml:space="preserve">
<g id="Captions">
</g>
<g id="Your_Icon">
	<g>
		<path fill="#000000" d="M29.341,70.13c-2.253-2.253-5.824-2.729-7.733-0.823l-0.123,0.125l-0.002-0.002L1.275,89.637l-0.03-0.029    l-0.06,0.055c-1.906,1.914-1.427,5.48,0.826,7.738c2.255,2.253,5.824,2.728,7.733,0.824l0.04-0.041l0.03,0.033l20.21-20.211    l0.003,0.003l0.138-0.146C32.074,75.959,31.596,72.388,29.341,70.13z"/>
		<path fill="#000000" d="M88.843,11.749c-14.874-14.878-39-14.878-53.874,0c-14.878,14.876-14.878,38.994,0,53.875    c14.879,14.876,39,14.876,53.874,0C103.719,50.743,103.721,26.623,88.843,11.749z M40.224,60.373    c-12.001-12.006-12.001-31.525,0-43.525c11.996-12,31.522-12,43.52,0c11.997,12,11.997,31.52,0,43.521    C71.741,72.368,52.225,72.368,40.224,60.373z"/>
		<path fill="#000000" d="M82.458,33.894l-4.807-3.365V20.201c0-0.345-0.276-0.621-0.618-0.621h-4.752    c-0.342,0-0.617,0.276-0.617,0.621v6.136l-9.403-6.583c-0.217-0.15-0.498-0.15-0.714,0l-20.193,14.14    c-0.136,0.096-0.227,0.238-0.256,0.402c-0.028,0.16,0.01,0.326,0.103,0.462l2.75,3.926c0.121,0.173,0.312,0.266,0.508,0.266    c0.125,0,0.246-0.035,0.356-0.113l1.21-0.846v19.183c0,0.339,0.276,0.618,0.621,0.618h10.619c0.342,0,0.621-0.279,0.621-0.618    V42.857h8.042v14.315c0,0.339,0.278,0.618,0.62,0.618h10.538c0.344,0,0.618-0.279,0.618-0.618v-19.24l1.293,0.903    c0.281,0.199,0.668,0.129,0.864-0.152l2.753-3.926c0.09-0.136,0.13-0.304,0.1-0.462C82.685,34.132,82.594,33.989,82.458,33.894z"/>
	</g>
</g>
</svg>