<svg xmlns="http://www.w3.org/2000/svg" xmlns:xlink="http://www.w3.org/1999/xlink" version="1.1" id="Your_Icon" x="0px" y="0px" width="100px" height="100px" viewBox="0 0 100 100" enable-background="new 0 0 100 100" xml:space="preserve">
<path d="M81.289,63.174H58.776l11.819-24.426l1.953-4.036c0.234-0.63,0.445-1.27,0.628-1.923c0.574-2.056,0.903-4.214,0.903-6.453  c0-13.264-10.756-24.018-24.021-24.018c-13.265,0-24.02,10.754-24.02,24.018c0,2.239,0.33,4.397,0.904,6.453  c0.181,0.653,0.393,1.293,0.628,1.923l1.952,4.035l11.818,24.427H18.828L1.806,98.825h96.507L81.289,63.174z M50.059,17.742  c4.746,0,8.595,3.849,8.595,8.593c0,4.748-3.849,8.594-8.595,8.594c-4.746,0-8.594-3.847-8.594-8.594  C41.465,21.591,45.313,17.742,50.059,17.742z M36.425,71.987c4.039,0.549,6.411,3.368,9.317,6.869  c4.618,5.559,10.365,12.48,25.699,12.48c9.378,0,15.119-1.703,17.107-5.057l4.365,9.14H36.425V71.987z M82.815,74.271  c-5.973,0.014-12.629-0.04-15.897-3.3c-1.123-1.124-1.75-2.583-1.946-4.394h14.172L82.815,74.271z M50.059,81.19l7.071-14.612h6.145  c0.218,2.274,1.011,4.169,2.442,5.599c3.602,3.594,10.215,3.797,16.303,3.797c0.396,0,0.789,0,1.179,0l0.43-0.002l3.919,8.208  c-0.055,0.299-0.135,0.598-0.271,0.888c-0.959,2.084-4.484,4.567-15.834,4.567c-14.534,0-19.771-6.304-24.389-11.867  c-2.958-3.56-5.789-6.907-10.627-7.479v-3.71h6.563L50.059,81.19z M20.975,66.578h13.748v3.598  c-7.431,0.058-10.788,2.59-13.485,4.635c-1.776,1.343-3.237,2.439-5.494,2.723L20.975,66.578z M14.903,79.295  c3.327-0.097,5.296-1.564,7.362-3.128c2.623-1.988,5.609-4.227,12.458-4.282V95.42H7.204L14.903,79.295z"/>
</svg>